REM DIRINDEX 1\2,1\3,1\4,1\5\6,1\5\7,1\8
REM DIRNAME folder01,folder02,folder03,folder04,folder05,folder06,folder07,folder08
TITLE ""
FILE "154 【154】Unit9 (1741 branch out_1752 bear with ～).mp3" MP3
  TRACK 01 AUDIO
    TITLE "0:"
    INDEX 01 00:00:00
  TRACK 02 AUDIO
    TITLE "2:cjc115_6028"
    INDEX 01 00:00:07
  TRACK 03 AUDIO
    TITLE "0:"
    INDEX 01 00:01:42
  TRACK 04 AUDIO
    TITLE "3:cjc115_6029"
    INDEX 01 00:01:46
  TRACK 05 AUDIO
    TITLE "0:"
    INDEX 01 00:04:66
  TRACK 06 AUDIO
    TITLE "4:cjc115_6030"
    INDEX 01 00:04:72
  TRACK 07 AUDIO
    TITLE "0:"
    INDEX 01 00:09:02
  TRACK 08 AUDIO
    TITLE "2:cjc115_6031"
    INDEX 01 00:10:14
  TRACK 09 AUDIO
    TITLE "0:"
    INDEX 01 00:11:33
  TRACK 10 AUDIO
    TITLE "3:cjc115_6032"
    INDEX 01 00:11:42
  TRACK 11 AUDIO
    TITLE "0:"
    INDEX 01 00:13:18
  TRACK 12 AUDIO
    TITLE "4:cjc115_6033"
    INDEX 01 00:13:24
  TRACK 13 AUDIO
    TITLE "0:"
    INDEX 01 00:16:14
  TRACK 14 AUDIO
    TITLE "2:cjc115_6034"
    INDEX 01 00:17:23
  TRACK 15 AUDIO
    TITLE "0:"
    INDEX 01 00:18:50
  TRACK 16 AUDIO
    TITLE "3:cjc115_6035"
    INDEX 01 00:18:58
  TRACK 17 AUDIO
    TITLE "0:"
    INDEX 01 00:21:47
  TRACK 18 AUDIO
    TITLE "4:cjc115_6036"
    INDEX 01 00:21:57
  TRACK 19 AUDIO
    TITLE "0:"
    INDEX 01 00:25:41
  TRACK 20 AUDIO
    TITLE "2:cjc115_6037"
    INDEX 01 00:26:52
  TRACK 21 AUDIO
    TITLE "0:"
    INDEX 01 00:28:62
  TRACK 22 AUDIO
    TITLE "3:cjc115_6038"
    INDEX 01 00:28:72
  TRACK 23 AUDIO
    TITLE "0:"
    INDEX 01 00:31:08
  TRACK 24 AUDIO
    TITLE "4:cjc115_6039"
    INDEX 01 00:31:12
  TRACK 25 AUDIO
    TITLE "0:"
    INDEX 01 00:34:59
  TRACK 26 AUDIO
    TITLE "2:cjc115_6040"
    INDEX 01 00:35:66
  TRACK 27 AUDIO
    TITLE "0:"
    INDEX 01 00:37:24
  TRACK 28 AUDIO
    TITLE "3:cjc115_6041"
    INDEX 01 00:37:32
  TRACK 29 AUDIO
    TITLE "0:"
    INDEX 01 00:39:56
  TRACK 30 AUDIO
    TITLE "4:cjc115_6042"
    INDEX 01 00:39:64
  TRACK 31 AUDIO
    TITLE "0:"
    INDEX 01 00:44:20
  TRACK 32 AUDIO
    TITLE "2:cjc115_6043"
    INDEX 01 00:45:32
  TRACK 33 AUDIO
    TITLE "0:"
    INDEX 01 00:47:23
  TRACK 34 AUDIO
    TITLE "3:cjc115_6044"
    INDEX 01 00:47:34
  TRACK 35 AUDIO
    TITLE "0:"
    INDEX 01 00:51:71
  TRACK 36 AUDIO
    TITLE "4:cjc115_6045"
    INDEX 01 00:52:04
  TRACK 37 AUDIO
    TITLE "0:"
    INDEX 01 00:56:00
  TRACK 38 AUDIO
    TITLE "2:cjc115_6046"
    INDEX 01 00:57:09
  TRACK 39 AUDIO
    TITLE "0:"
    INDEX 01 00:58:50
  TRACK 40 AUDIO
    TITLE "3:cjc115_6047"
    INDEX 01 00:58:60
  TRACK 41 AUDIO
    TITLE "0:"
    INDEX 01 01:00:29
  TRACK 42 AUDIO
    TITLE "4:cjc115_6048"
    INDEX 01 01:00:39
  TRACK 43 AUDIO
    TITLE "0:"
    INDEX 01 01:03:65
  TRACK 44 AUDIO
    TITLE "2:cjc115_6049"
    INDEX 01 01:04:70
  TRACK 45 AUDIO
    TITLE "0:"
    INDEX 01 01:06:20
  TRACK 46 AUDIO
    TITLE "3:cjc115_6050"
    INDEX 01 01:06:30
  TRACK 47 AUDIO
    TITLE "0:"
    INDEX 01 01:09:44
  TRACK 48 AUDIO
    TITLE "4:cjc115_6051"
    INDEX 01 01:09:52
  TRACK 49 AUDIO
    TITLE "0:"
    INDEX 01 01:13:53
  TRACK 50 AUDIO
    TITLE "2:cjc115_6052"
    INDEX 01 01:14:65
  TRACK 51 AUDIO
    TITLE "0:"
    INDEX 01 01:17:02
  TRACK 52 AUDIO
    TITLE "3:cjc115_6053"
    INDEX 01 01:17:12
  TRACK 53 AUDIO
    TITLE "0:"
    INDEX 01 01:18:53
  TRACK 54 AUDIO
    TITLE "4:cjc115_6054"
    INDEX 01 01:18:60
  TRACK 55 AUDIO
    TITLE "0:"
    INDEX 01 01:22:56
  TRACK 56 AUDIO
    TITLE "2:cjc115_6055"
    INDEX 01 01:23:67
  TRACK 57 AUDIO
    TITLE "0:"
    INDEX 01 01:25:23
  TRACK 58 AUDIO
    TITLE "3:cjc115_6056"
    INDEX 01 01:25:35
  TRACK 59 AUDIO
    TITLE "0:"
    INDEX 01 01:27:50
  TRACK 60 AUDIO
    TITLE "4:cjc115_6057"
    INDEX 01 01:27:61
  TRACK 61 AUDIO
    TITLE "0:"
    INDEX 01 01:32:15
  TRACK 62 AUDIO
    TITLE "2:cjc115_6058"
    INDEX 01 01:33:27
  TRACK 63 AUDIO
    TITLE "0:"
    INDEX 01 01:35:06
  TRACK 64 AUDIO
    TITLE "3:cjc115_6059"
    INDEX 01 01:35:12
  TRACK 65 AUDIO
    TITLE "0:"
    INDEX 01 01:37:26
  TRACK 66 AUDIO
    TITLE "4:cjc115_6060"
    INDEX 01 01:37:34
  TRACK 67 AUDIO
    TITLE "0:"
    INDEX 01 01:42:14
  TRACK 68 AUDIO
    TITLE "2:cjc115_6061"
    INDEX 01 01:43:25
  TRACK 69 AUDIO
    TITLE "0:"
    INDEX 01 01:44:50
  TRACK 70 AUDIO
    TITLE "3:cjc115_6062"
    INDEX 01 01:44:56
  TRACK 71 AUDIO
    TITLE "0:"
    INDEX 01 01:46:53
  TRACK 72 AUDIO
    TITLE "4:cjc115_6063"
    INDEX 01 01:46:65
  TRACK 73 AUDIO
    TITLE "0:"
    INDEX 01 01:52:02
